<?xml version="1.0" encoding="UTF-8" standalone="no"?>
<svg
   version="1.1"
   id="Capa_1"
   x="0px"
   y="0px"
   viewBox="0 0 256 256"
   xml:space="preserve"
   width="256"
   height="256"
   sodipodi:docname="logo.svg"
   inkscape:version="1.2.2 (b0a8486541, 2022-12-01)"
   xmlns:inkscape="http://www.inkscape.org/namespaces/inkscape"
   xmlns:sodipodi="http://sodipodi.sourceforge.net/DTD/sodipodi-0.dtd"
   xmlns="http://www.w3.org/2000/svg"
   xmlns:svg="http://www.w3.org/2000/svg"><defs
   id="defs73" /><sodipodi:namedview
   id="namedview71"
   pagecolor="#ffffff"
   bordercolor="#000000"
   borderopacity="0.25"
   inkscape:showpageshadow="2"
   inkscape:pageopacity="0.0"
   inkscape:pagecheckerboard="0"
   inkscape:deskcolor="#d1d1d1"
   showgrid="false"
   inkscape:zoom="11.346854"
   inkscape:cx="257.42818"
   inkscape:cy="34.238565"
   inkscape:window-width="2560"
   inkscape:window-height="1371"
   inkscape:window-x="0"
   inkscape:window-y="0"
   inkscape:window-maximized="1"
   inkscape:current-layer="Capa_1" />
<g
   id="g68"
   transform="matrix(0.50000098,0,0,0.50000098,0.3725586,-0.03531017)">
	<g
   id="g40">
		
			<ellipse
   transform="matrix(0.3396,-0.9406,0.9406,0.3396,-61.2665,597.7147)"
   style="fill:#c76d33"
   cx="394.98901"
   cy="342.48401"
   rx="120.298"
   ry="90.200996"
   id="ellipse2" />
		<path
   style="fill:#f8ea69"
   d="m 350.629,504.5 h -54.733 c -19.186,0 -34.884,-15.698 -34.884,-34.884 v 0 c 0,-19.186 15.698,-34.884 34.884,-34.884 h 54.733 c 19.186,0 34.884,15.698 34.884,34.884 v 0 c 0,19.186 -15.698,34.884 -34.884,34.884 z"
   id="path4" />
		<path
   style="fill:#b75925"
   d="m 62.778,491.374 v 0 c -17.501,-17.501 -17.501,-46.139 0,-63.64 l 72.125,-72.125 c 17.501,-17.501 46.139,-17.501 63.64,0 v 0 c 17.501,17.501 17.501,46.139 0,63.64 l -72.125,72.125 c -17.502,17.501 -46.14,17.501 -63.64,0 z"
   id="path6" />
		<path
   style="fill:#d97c41"
   d="m 255.107,477.126 h -48.819 c -42.119,0 -76.581,-34.461 -76.581,-76.581 V 231.44 c 0,-42.119 34.461,-76.581 76.581,-76.581 h 130.077 c 42.119,0 76.581,34.461 76.581,76.581 v 87.848 c -0.001,86.811 -71.028,157.838 -157.839,157.838 z"
   id="path8" />
		<path
   style="fill:#c76d33"
   d="M 244.601,400.545 V 231.44 c 0,-42.119 34.461,-76.581 76.581,-76.581 H 206.288 c -42.119,0 -76.581,34.461 -76.581,76.581 v 169.105 c 0,42.119 34.461,76.581 76.581,76.581 h 48.819 c 13.491,0 26.599,-1.718 39.12,-4.941 -28.92,-10.966 -49.626,-38.996 -49.626,-71.64 z"
   id="path10" />
		<path
   style="fill:#fff8e6"
   d="m 271.327,7.5 v 0 c -41.746,0 -79.995,15.71 -109.148,41.499 V 48.997 L 87.848,113.8 c -6.303,5.495 -5.337,15.557 1.896,19.753 v 0 c 6.431,3.73 8.06,12.295 3.447,18.126 l -24.917,31.495 c -4.26,5.385 -3.24,13.222 2.255,17.338 l 38.021,28.472 c 6.051,21.027 23.385,37.593 45.726,42.07 35.228,7.06 73.914,10.963 114.512,10.963 42.96,0 83.779,-4.37 120.626,-12.226 27.473,-5.857 47.022,-30.267 47.022,-58.357 V 172.61 C 436.436,81.799 362.137,7.5 271.327,7.5 Z"
   id="path12" />
		<path
   style="fill:#fff1cf"
   d="m 256.896,271.863 c -22.341,-4.477 -39.675,-21.043 -45.726,-42.07 l -38.021,-28.472 c -5.496,-4.115 -6.515,-11.953 -2.255,-17.338 l 24.917,-31.495 c 4.613,-5.831 2.984,-14.396 -3.447,-18.126 v 0 c -7.233,-4.195 -8.199,-14.258 -1.896,-19.753 l 74.331,-64.802 v 0.002 C 281.777,34.791 301.843,23.2 323.884,16.13 307.357,10.538 289.68,7.5 271.328,7.5 v 0 c -41.746,0 -79.995,15.71 -109.148,41.499 v -0.002 l -74.331,64.802 c -6.303,5.495 -5.337,15.557 1.896,19.753 6.431,3.73 8.06,12.295 3.447,18.126 l -24.917,31.495 c -4.26,5.385 -3.24,13.222 2.255,17.338 l 38.021,28.472 c 6.051,21.027 23.385,37.593 45.726,42.07 35.228,7.06 73.914,10.963 114.512,10.963 15.82,0 31.346,-0.597 46.494,-1.738 -20.27,-1.858 -39.813,-4.693 -58.387,-8.415 z"
   id="path14" />
		
			<ellipse
   transform="matrix(0.3396,-0.9406,0.9406,0.3396,-238.7818,331.9872)"
   style="fill:#df8a57"
   cx="117.011"
   cy="336.026"
   rx="120.298"
   ry="90.200996"
   id="ellipse16" />
		<path
   style="fill:#d97c41"
   d="m 106.169,305.398 c 12.895,-35.72 36.807,-63.087 63.677,-76.827 -3.769,-2.258 -7.767,-4.173 -11.988,-5.697 -46.857,-16.915 -103.13,20.032 -125.69,82.523 -22.56,62.491 -2.862,126.864 43.995,143.779 20.073,7.246 41.873,4.6 62.012,-5.697 -38.07,-22.806 -52.533,-81.219 -32.006,-138.081 z"
   id="path18" />
		<path
   style="fill:#f9ee80"
   d="m 284.944,504.5 h -54.733 c -19.186,0 -34.884,-15.698 -34.884,-34.884 v 0 c 0,-19.186 15.698,-34.884 34.884,-34.884 h 54.733 c 19.186,0 34.884,15.698 34.884,34.884 v 0 c 0.001,19.186 -15.697,34.884 -34.884,34.884 z"
   id="path20" />
		<g
   id="g34">
			<g
   id="g28">
				<g
   id="g26">
					<ellipse
   style="fill:#ffa1ac"
   cx="209.54401"
   cy="175.22701"
   rx="30.545"
   ry="24.325001"
   id="ellipse22" />
					<path
   style="fill:#ffa1ac"
   d="m 344.564,175.227 c 0,13.434 13.675,24.325 30.545,24.325 3.307,0 6.492,-0.419 9.474,-1.193 12.232,-3.175 21.071,-12.331 21.071,-23.132 0,-13.434 -13.675,-24.324 -30.545,-24.324 -16.87,-0.001 -30.545,10.89 -30.545,24.324 z"
   id="path24" />
				</g>
			</g>
			
				<line
   style="fill:none;stroke:#000000;stroke-width:15;stroke-linecap:round;stroke-linejoin:round;stroke-miterlimit:10"
   x1="227.34599"
   y1="139.325"
   x2="227.34599"
   y2="151.811"
   id="line30" />
			
				<line
   style="fill:none;stroke:#000000;stroke-width:15;stroke-linecap:round;stroke-linejoin:round;stroke-miterlimit:10"
   x1="357.30701"
   y1="139.325"
   x2="357.30701"
   y2="151.811"
   id="line32" />
		</g>
		<path
   style="fill:#f9ee80"
   d="m 302.987,158.359 c -6.356,0 -12.474,1.007 -18.208,2.868 -11.12,3.609 -19.208,13.325 -21.146,24.854 -0.58,3.447 -0.882,6.983 -0.882,10.588 0,0.073 0,0.145 0,0.218 0.039,11.41 9.528,20.543 20.938,20.543 h 54.62 c 14.389,0 23.522,-15.379 16.683,-28.038 -9.983,-18.479 -29.528,-31.033 -52.005,-31.033 z"
   id="path36" />
		<path
   style="fill:#f8ea69"
   d="m 297.286,196.887 c 0,-0.073 0,-0.145 0,-0.218 0,-3.605 0.302,-7.142 0.882,-10.588 1.939,-11.529 10.026,-21.245 21.146,-24.854 0.317,-0.103 0.639,-0.193 0.957,-0.291 -5.468,-1.671 -11.269,-2.578 -17.284,-2.578 -6.356,0 -12.474,1.007 -18.208,2.868 -11.12,3.609 -19.208,13.325 -21.146,24.854 -0.58,3.446 -0.882,6.983 -0.882,10.588 0,0.073 0,0.145 0,0.218 0.039,11.41 9.528,20.543 20.938,20.543 h 34.535 c -11.41,0 -20.899,-9.132 -20.938,-20.542 z"
   id="path38" />
	</g>
	<g
   id="g66">
		<path
   style="fill:none;stroke:#000000;stroke-width:15;stroke-linecap:round;stroke-linejoin:round;stroke-miterlimit:10"
   d="m 435.836,229.333 c 46.857,16.915 66.554,81.287 43.995,143.779 -17.695,49.016 -56.131,82.316 -94.496,86.236"
   id="path42" />
		<path
   style="fill:none;stroke:#000000;stroke-width:15;stroke-linecap:round;stroke-linejoin:round;stroke-miterlimit:10"
   d="m 362.99,437.006 c 13.132,5.017 22.523,17.77 22.523,32.609 v 0 c 0,19.186 -15.698,34.884 -34.884,34.884 h -54.733"
   id="path44" />
		<path
   style="fill:none;stroke:#000000;stroke-width:15;stroke-linecap:round;stroke-linejoin:round;stroke-miterlimit:10"
   d="m 156.729,461.062 -30.312,30.312 c -17.501,17.501 -46.139,17.501 -63.64,0 v 0 c -14.12,-14.12 -16.848,-35.489 -8.184,-52.41"
   id="path46" />
		<path
   style="fill:none;stroke:#000000;stroke-width:15;stroke-linecap:round;stroke-linejoin:round;stroke-miterlimit:10"
   d="m 392.39,396.935 c -16.58,29.118 -42.156,52.526 -72.874,66.37"
   id="path48" />
		<path
   style="fill:none;stroke:#000000;stroke-width:15;stroke-linecap:round;stroke-linejoin:round;stroke-miterlimit:10"
   d="m 412.945,261.003 v 58.285 c 0,16.514 -2.57,32.457 -7.331,47.449"
   id="path50" />
		<path
   style="fill:none;stroke:#000000;stroke-width:15;stroke-linecap:round;stroke-linejoin:round;stroke-miterlimit:10"
   d="m 195.373,476.345 c -21.93,-3.165 -40.934,-15.712 -52.775,-33.408"
   id="path52" />
		<path
   style="fill:none;stroke:#000000;stroke-width:15;stroke-linecap:round;stroke-linejoin:round;stroke-miterlimit:10"
   d="m 111.081,93.544 -23.233,20.255 c -6.303,5.495 -5.337,15.557 1.896,19.753 v 0 c 6.431,3.73 8.06,12.295 3.447,18.126 l -24.917,31.495 c -4.26,5.385 -3.24,13.222 2.255,17.338 l 30.367,22.74"
   id="path54" />
		<path
   style="fill:none;stroke:#000000;stroke-width:15;stroke-linecap:round;stroke-linejoin:round;stroke-miterlimit:10"
   d="m 207.601,278.992 c 19.743,1.981 40.21,3.023 61.187,3.023 42.96,0 83.779,-4.37 120.626,-12.226 27.473,-5.857 47.022,-30.267 47.022,-58.357 V 172.608 C 436.436,81.798 362.137,7.499 271.327,7.499 v 0 c -41.746,0 -79.995,15.71 -109.148,41.499 v -0.002 l -27.414,23.9"
   id="path56" />
		
			<ellipse
   transform="matrix(0.3396,-0.9406,0.9406,0.3396,-238.7818,331.9872)"
   style="fill:none;stroke:#000000;stroke-width:15;stroke-linecap:round;stroke-linejoin:round;stroke-miterlimit:10"
   cx="117.011"
   cy="336.026"
   rx="120.298"
   ry="90.200996"
   id="ellipse58" />
		<path
   style="fill:none;stroke:#000000;stroke-width:15;stroke-linecap:round;stroke-linejoin:round;stroke-miterlimit:10"
   d="m 284.944,504.5 h -54.733 c -19.186,0 -34.884,-15.698 -34.884,-34.884 v 0 c 0,-19.186 15.698,-34.884 34.884,-34.884 h 54.733 c 19.186,0 34.884,15.698 34.884,34.884 v 0 c 0.001,19.186 -15.697,34.884 -34.884,34.884 z"
   id="path60" />
		<path
   style="fill:none;stroke:#000000;stroke-width:15;stroke-linecap:round;stroke-linejoin:round;stroke-miterlimit:10"
   d="m 302.987,158.359 c -6.356,0 -12.474,1.007 -18.208,2.868 -11.12,3.609 -19.208,13.325 -21.146,24.854 -0.58,3.447 -0.882,6.983 -0.882,10.588 0,0.073 0,0.145 0,0.218 0.039,11.41 9.528,20.543 20.938,20.543 h 54.62 c 14.389,0 23.522,-15.379 16.683,-28.038 -9.983,-18.479 -29.528,-31.033 -52.005,-31.033 z"
   id="path62" />
		<path
   style="fill:none;stroke:#000000;stroke-width:15;stroke-linecap:round;stroke-linejoin:round;stroke-miterlimit:10"
   d="m 356.578,328.346 c 0,13.807 -11.193,25 -25,25 -13.807,0 -25,-11.193 -25,-25 0,13.807 -11.193,25 -25,25 -13.807,0 -25,-11.193 -25,-25"
   id="path64" />
	</g>
</g>















</svg>
